# xmcd
#
# Track frame offsets:
#	150
#	13423
#	28482
#	42201
#	58364
#	71934
#	80388
#	97225
#	108814
#	126473
#	136807
#	151965
#	169512
#	183235
#
# Disc length: 2629 seconds
# Revision: 1
# Processed by: cddbd v1.5.2PL0 Copyright (c) Steve Scherf et al.
# Submitted via: dBpowerAMP V12.0
#
DISCID=c90a430e
DTITLE=Big Country Bluegrass - Memories of the Past
DYEAR=2013
DGENRE=Country
TTITLE0=I'm Putting on My Leaving Shoes
TTITLE1=My Time Is Running Out
TTITLE2=Somebody's Waiting for Me
TTITLE3=The Little Girl and the Dreadful Snake
TTITLE4=If Teardrops Were Pennies
TTITLE5=Headin' South
TTITLE6=Like the Boys on Music Row
TTITLE7=Choking the Strings
TTITLE8=99 Years Is Almost for Life
TTITLE9=Won't You Think of Me
TTITLE10=I'm Longing for My Old Virginia Home
TTITLE11=John Doe Made the Crossing
TTITLE12=Baby, You're Cheatin'
TTITLE13=Stop Playing a Game
EXTD=
EXTT0=
EXTT1=
EXTT2=
EXTT3=
EXTT4=
EXTT5=
EXTT6=
EXTT7=
EXTT8=
EXTT9=
EXTT10=
EXTT11=
EXTT12=
EXTT13=
PLAYORDER=
